<svg width="47" height="44" viewBox="0 0 47 44" fill="none" xmlns="http://www.w3.org/2000/svg">
<path d="M14.2396 1.84958L9.79043 10.586C9.50311 11.1501 9.69229 11.8554 10.2159 12.1725L17.1826 16.3921C17.7134 16.7136 18.3884 16.5159 18.6902 15.9504L27.2058 0.000610352H17.1554C15.9388 0.000610352 14.8199 0.710139 14.2396 1.84958Z" fill="#29A361"/>
<path d="M27.2056 0L18.6903 15.95C18.3879 16.5154 17.7134 16.7136 17.1828 16.3923L15.3645 15.2913C15.8077 15.3674 16.269 15.1503 16.5038 14.7099L24.3588 0H27.2056Z" fill="#248F55"/>
<path d="M36.5231 8.45919L33.4544 1.94897C32.8914 0.754539 31.7442 0.000610352 30.4899 0.000610352H21.6172L28.4296 12.3166C28.4073 12.3273 28.3849 12.3379 28.3625 12.3486C27.934 12.5542 27.9515 13.2092 28.3902 13.3888L34.2727 15.796C34.5453 15.9075 34.8511 15.7625 34.9558 15.4721L37.2235 9.1795C37.3911 8.71403 36.9509 8.26488 36.5231 8.45919Z" fill="#34CB79"/>
<path d="M37.2236 9.17899L34.9553 15.4715C34.8511 15.7627 34.5448 15.9079 34.2725 15.7958L32.4925 15.0671L34.6144 9.17899C34.735 8.84506 34.5423 8.51988 34.2659 8.43458C34.0027 8.35326 33.7779 8.16954 33.6549 7.90858L30.8452 1.94875C30.2825 0.754706 29.1357 0 27.8809 0H30.4901C31.744 0 32.8908 0.754706 33.4544 1.94875L36.5229 8.45945C36.9513 8.26524 37.3909 8.71361 37.2236 9.17899Z" fill="#2FB86E"/>
<path d="M30.5951 33.5592C30.5125 33.1978 30.0748 33.043 29.8078 33.3275L25.2101 38.2268C25.0266 38.4223 25.0266 38.7391 25.2101 38.9345L29.8255 43.8526C30.0908 44.1352 30.5239 43.9844 30.6111 43.6291H37.3983C38.6479 43.6291 39.7915 42.8809 40.3569 41.6934L44.2297 33.5591H30.5951V33.5592Z" fill="#29A361"/>
<path d="M36.3248 33.5593L38.5255 37.1078C39.0231 37.9101 39.0782 38.9352 38.6698 39.7927L37.7646 41.6935C37.2002 42.8805 36.0561 43.6292 34.807 43.6292H37.3983C38.6476 43.6292 39.7916 42.8805 40.3571 41.6935L44.2296 33.5594H36.3248V33.5593Z" fill="#248F55"/>
<path d="M21.3327 42.6939V34.0356C21.3327 33.3848 20.8376 32.8572 20.2268 32.8572H2.01094L6.69877 42.0281C7.27982 43.1648 8.39734 43.8722 9.61206 43.8722H20.2268C20.8375 43.8723 21.3327 43.3448 21.3327 42.6939Z" fill="#29A361"/>
<path d="M9.73636 32.8579L5.69093 40.0572L2.01094 32.8579H9.73636Z" fill="#248F55"/>
<path d="M21.3325 34.0357V42.6943C21.3325 43.3448 20.8375 43.8723 20.227 43.8723H17.3257C17.9361 43.8723 18.4311 43.3448 18.4311 42.6943V34.0357C18.4311 33.3851 17.9361 32.8577 17.3257 32.8577H20.227C20.8375 32.8576 21.3325 33.3851 21.3325 34.0357Z" fill="#248F55"/>
<path d="M12.4335 25.2066L11.6155 18.6467C11.575 18.3226 11.2957 18.0949 10.9916 18.1379L4.81191 19.0129C4.34656 19.0788 4.17313 19.682 4.49188 20.0176L0.591804 26.0077C-0.123277 27.106 -0.195852 28.54 0.404168 29.7138L4.64824 38.0167L11.5394 25.7507C11.5419 25.7526 11.5442 25.7546 11.5467 25.7566C11.94 26.0747 12.4984 25.7282 12.4335 25.2066Z" fill="#34CB79"/>
<path d="M11.5463 25.7566C11.5444 25.7546 11.5417 25.7526 11.5397 25.7506L4.6483 38.0163L3.231 35.2439L8.84005 25.2586L8.99558 24.9816C9.08065 24.8302 9.24686 24.7648 9.40942 24.7984C9.41025 24.7986 9.41107 24.7987 9.41189 24.7989C9.75775 24.8646 10.1124 24.5576 10.0593 24.1362L9.34077 18.3712L10.991 18.138C11.2954 18.095 11.5753 18.3232 11.6157 18.6464L12.4338 25.2072C12.4987 25.7285 11.9398 26.0748 11.5463 25.7566Z" fill="#2FB86E"/>
<path d="M46.0939 25.557L40.759 17.3197C40.4319 16.8144 39.7952 16.6616 39.2962 16.9684L32.3438 21.2435C31.792 21.5828 31.6227 22.3475 31.9741 22.9139L41.7749 38.7152L46.3222 29.1644C46.8725 28.0083 46.785 26.6239 46.0939 25.557Z" fill="#34CB79"/>
<path d="M46.3223 29.1645L41.7744 38.7149L40.249 36.2547L43.6248 29.1644C44.1752 28.0084 44.0879 26.6242 43.3966 25.5572L38.2504 17.6123L39.2967 16.9688C39.7954 16.6615 40.4323 16.8146 40.7592 17.3201L46.0942 25.5573C46.7854 26.6243 46.8727 28.0086 46.3223 29.1645Z" fill="#2FB86E"/>
</svg>
